<?xml version="1.0" standalone="no"?><!DOCTYPE svg PUBLIC "-//W3C//DTD SVG 1.1//EN" "http://www.w3.org/Graphics/SVG/1.1/DTD/svg11.dtd"><svg t="1565086066642" class="icon" viewBox="0 0 1024 1024" version="1.1" xmlns="http://www.w3.org/2000/svg" p-id="11057" xmlns:xlink="http://www.w3.org/1999/xlink" width="200" height="200"><defs><style type="text/css"></style></defs><path d="M512 512m-512 0a512 512 0 1 0 1024 0 512 512 0 1 0-1024 0Z" fill="#FFFFFF" p-id="11058"></path><path d="M512 512m-323.2 0a323.2 323.2 0 1 0 646.4 0 323.2 323.2 0 1 0-646.4 0Z" fill="#FFB900" p-id="11059"></path><path d="M512 848c-185.6 0-336-150.4-336-336s150.4-336 336-336 336 150.4 336 336-150.4 336-336 336z m0-646.4c-171.2 0-310.4 139.2-310.4 310.4s139.2 310.4 310.4 310.4 310.4-139.2 310.4-310.4S683.2 201.6 512 201.6z" fill="#333333" p-id="11060"></path><path d="M496 320m-48 0a48 48 0 1 0 96 0 48 48 0 1 0-96 0Z" fill="#FF7400" p-id="11061"></path><path d="M328 520m-40 0a40 40 0 1 0 80 0 40 40 0 1 0-80 0Z" fill="#FF7400" p-id="11062"></path><path d="M672 448m-16 0a16 16 0 1 0 32 0 16 16 0 1 0-32 0Z" fill="#FF7400" p-id="11063"></path><path d="M432 688m-16 0a16 16 0 1 0 32 0 16 16 0 1 0-32 0Z" fill="#FF7400" p-id="11064"></path><path d="M616 696m-24 0a24 24 0 1 0 48 0 24 24 0 1 0-48 0Z" fill="#FF7400" p-id="11065"></path><path d="M171.2 752.8c-21.6 0-39.2-4.8-46.4-17.6-16.8-29.6 10.4-86.4 66.4-138.4l20 20.8c-52 48.8-67.2 92.8-60.8 103.2 3.2 3.2 33.6 10.4 117.6-15.2 81.6-24.8 183.2-71.2 285.6-130.4 102.4-59.2 193.6-124 256-181.6 61.6-57.6 72.8-88 72-94.4-7.2-5.6-52-11.2-121.6 8.8L752 280c62.4-18.4 137.6-24.8 154.4 4 18.4 32.8-40.8 95.2-77.6 129.6-64 60-156.8 125.6-260.8 185.6S360 706.4 276.8 732c-30.4 9.6-72.8 20.8-105.6 20.8z" fill="#333333" p-id="11066"></path></svg>